<svg xmlns="http://www.w3.org/2000/svg" xmlns:xlink="http://www.w3.org/1999/xlink" width="40" zoomAndPan="magnify" viewBox="0 0 30 30.000001" height="40" preserveAspectRatio="xMidYMid meet" version="1.0"><path fill="#000000" d="M 14.242188 3.777344 C 13.9375 3.824219 13.433594 4 13.144531 4.167969 C 12.207031 4.703125 11.363281 5.699219 10.636719 7.128906 C 9.816406 8.75 9.371094 10.480469 9.1875 12.792969 C 9.097656 13.945312 9.109375 15.078125 9.234375 16.445312 C 9.292969 17.066406 9.320312 17.242188 9.585938 18.445312 C 10.207031 21.304688 11.699219 23.601562 13.394531 24.296875 C 13.871094 24.496094 14.105469 24.539062 14.6875 24.539062 C 15.28125 24.535156 15.519531 24.488281 16 24.28125 C 16.957031 23.867188 17.863281 22.929688 18.59375 21.601562 C 19.074219 20.734375 19.433594 19.796875 19.726562 18.664062 C 19.800781 18.375 19.90625 17.984375 19.957031 17.789062 C 20.144531 17.101562 20.308594 15.863281 20.34375 14.910156 C 20.363281 14.375 20.363281 14.359375 20.285156 14.253906 C 20.15625 14.066406 20.046875 14.003906 19.847656 14.003906 C 19.527344 14 19.375 14.179688 19.34375 14.597656 C 19.253906 16.007812 19.101562 16.988281 18.800781 18.132812 C 18.53125 19.167969 18.289062 19.867188 17.925781 20.617188 C 17.277344 21.96875 16.539062 22.847656 15.710938 23.257812 C 15.324219 23.445312 15.089844 23.503906 14.703125 23.503906 C 14.011719 23.503906 13.429688 23.238281 12.792969 22.625 C 11.582031 21.460938 10.691406 19.382812 10.328125 16.859375 C 10.117188 15.402344 10.132812 13.183594 10.359375 11.546875 C 10.554688 10.15625 10.953125 8.839844 11.550781 7.621094 C 12.222656 6.257812 13.070312 5.296875 13.929688 4.921875 C 14.746094 4.5625 15.707031 4.738281 16.472656 5.382812 C 17.414062 6.171875 18.425781 8.03125 18.703125 9.480469 C 18.953125 10.78125 18.667969 11.859375 17.875 12.617188 C 17.316406 13.144531 16.703125 13.414062 15.546875 13.621094 C 14.898438 13.738281 14.515625 13.859375 14.105469 14.070312 C 13.4375 14.414062 13.015625 14.851562 12.6875 15.542969 C 12.332031 16.292969 12.296875 17.25 12.59375 18.015625 C 12.78125 18.503906 13.179688 19.011719 13.617188 19.308594 C 13.789062 19.425781 13.863281 19.453125 14.011719 19.464844 C 14.335938 19.484375 14.605469 19.269531 14.605469 18.988281 C 14.605469 18.820312 14.472656 18.628906 14.230469 18.445312 C 13.875 18.179688 13.625 17.8125 13.5 17.371094 C 13.417969 17.109375 13.445312 16.503906 13.542969 16.199219 C 13.691406 15.738281 14.054688 15.289062 14.484375 15.035156 C 14.792969 14.851562 15.167969 14.730469 15.757812 14.632812 C 16.035156 14.585938 16.363281 14.523438 16.484375 14.496094 C 17.042969 14.367188 17.621094 14.125 18.09375 13.816406 C 18.460938 13.574219 19.003906 13.015625 19.230469 12.648438 C 19.636719 11.992188 19.859375 11.140625 19.859375 10.277344 C 19.855469 8.59375 18.722656 6.097656 17.390625 4.828125 C 16.871094 4.332031 16.28125 3.988281 15.695312 3.839844 C 15.367188 3.757812 14.597656 3.722656 14.242188 3.777344 Z M 14.242188 3.777344 " fill-opacity="1" fill-rule="nonzero"/><path fill="#000000" d="M 15.496094 16.207031 C 15.203125 16.363281 15.0625 16.761719 15.183594 17.078125 C 15.453125 17.773438 16.351562 17.738281 16.523438 17.019531 C 16.597656 16.710938 16.433594 16.335938 16.164062 16.199219 C 15.972656 16.101562 15.6875 16.109375 15.496094 16.207031 Z M 15.496094 16.207031 " fill-opacity="1" fill-rule="nonzero"/><path fill="#000000" d="M 15.546875 18.953125 C 15.191406 19.113281 15.039062 19.550781 15.214844 19.917969 C 15.464844 20.445312 16.097656 20.519531 16.414062 20.054688 C 16.65625 19.695312 16.53125 19.167969 16.160156 18.972656 C 16.007812 18.898438 15.699219 18.886719 15.546875 18.953125 Z M 15.546875 18.953125 " fill-opacity="1" fill-rule="nonzero"/></svg>