<svg xmlns="http://www.w3.org/2000/svg" xmlns:xlink="http://www.w3.org/1999/xlink" width="1080" zoomAndPan="magnify" viewBox="0 0 810 809.999993" height="1080" preserveAspectRatio="xMidYMid meet" version="1.0"><path fill="#000000" d="M 388.359375 106.351562 C 379.804688 107.65625 365.574219 112.675781 357.484375 117.328125 C 331.070312 132.484375 307.355469 160.480469 286.894531 200.65625 C 263.832031 246.316406 251.277344 295.050781 246.164062 360.148438 C 243.558594 392.515625 243.929688 424.414062 247.464844 462.914062 C 249.046875 480.398438 249.882812 485.328125 257.320312 519.179688 C 274.804688 599.625 316.84375 664.261719 364.457031 683.882812 C 377.941406 689.460938 384.546875 690.671875 400.914062 690.671875 C 417.5625 690.578125 424.351562 689.277344 437.835938 683.417969 C 464.710938 671.792969 490.289062 645.382812 510.839844 607.996094 C 524.324219 583.535156 534.460938 557.21875 542.738281 525.316406 C 544.785156 517.226562 547.761719 506.160156 549.15625 500.671875 C 554.457031 481.328125 559.105469 446.546875 560.039062 419.667969 C 560.59375 404.605469 560.59375 404.230469 558.457031 401.164062 C 554.828125 395.953125 551.761719 394.1875 546.085938 394.1875 C 537.066406 394.09375 532.789062 399.117188 531.949219 410.929688 C 529.347656 450.546875 525.070312 478.167969 516.699219 510.34375 C 509.074219 539.546875 502.191406 559.167969 492.054688 580.28125 C 473.824219 618.316406 452.996094 643.054688 429.746094 654.585938 C 418.863281 659.890625 412.261719 661.5625 401.378906 661.5625 C 381.847656 661.5625 365.480469 654.03125 347.53125 636.824219 C 313.496094 603.996094 288.476562 545.5 278.246094 474.539062 C 272.296875 433.527344 272.667969 371.125 279.085938 325.089844 C 284.570312 285.9375 295.824219 248.828125 312.65625 214.605469 C 331.535156 176.195312 355.34375 149.132812 379.523438 138.625 C 402.589844 128.488281 429.558594 133.414062 451.132812 151.550781 C 477.640625 173.777344 506.097656 226.136719 513.910156 266.871094 C 520.882812 303.511719 512.886719 333.832031 490.566406 355.128906 C 474.847656 370.007812 457.644531 377.539062 425.09375 383.398438 C 406.867188 386.746094 396.078125 390.097656 384.546875 396.046875 C 365.761719 405.71875 353.855469 418.089844 344.648438 437.527344 C 334.605469 458.636719 333.582031 485.515625 341.953125 507.089844 C 347.253906 520.855469 358.507812 535.082031 370.78125 543.453125 C 375.617188 546.707031 377.664062 547.542969 381.847656 547.824219 C 390.964844 548.382812 398.589844 542.335938 398.589844 534.433594 C 398.589844 529.6875 394.871094 524.292969 388.082031 519.179688 C 378.035156 511.648438 370.96875 501.324219 367.433594 488.953125 C 365.203125 481.609375 365.945312 464.589844 368.644531 455.941406 C 372.828125 443.011719 383.058594 430.363281 395.148438 423.203125 C 403.890625 417.996094 414.398438 414.648438 431.046875 411.859375 C 438.859375 410.554688 448.066406 408.789062 451.414062 408.042969 C 467.128906 404.417969 483.5 397.535156 496.703125 388.886719 C 507.027344 382.097656 522.371094 366.382812 528.695312 356.058594 C 540.136719 337.550781 546.460938 313.648438 546.460938 289.285156 C 546.367188 241.945312 514.46875 171.640625 476.988281 135.925781 C 462.292969 121.976562 445.738281 112.304688 429.277344 108.121094 C 420.070312 105.796875 398.308594 104.863281 388.359375 106.351562 Z M 388.359375 106.351562 " fill-opacity="1" fill-rule="nonzero"/><path fill="#000000" d="M 423.605469 456.21875 C 415.421875 460.589844 411.421875 471.75 414.863281 480.679688 C 422.398438 500.300781 447.691406 499.277344 452.527344 479.097656 C 454.667969 470.355469 450.019531 459.847656 442.390625 455.941406 C 437.089844 453.242188 429 453.429688 423.605469 456.21875 Z M 423.605469 456.21875 " fill-opacity="1" fill-rule="nonzero"/><path fill="#000000" d="M 425.09375 533.5 C 415.050781 537.964844 410.773438 550.242188 415.699219 560.566406 C 422.769531 575.445312 440.53125 577.582031 449.460938 564.472656 C 456.34375 554.332031 452.808594 539.453125 442.300781 534.058594 C 438.019531 531.921875 429.371094 531.640625 425.09375 533.5 Z M 425.09375 533.5 " fill-opacity="1" fill-rule="nonzero"/></svg>