<?xml version="1.0" standalone="no"?>
<svg version="1.0" xmlns="http://www.w3.org/2000/svg"
 width="32" height="32" viewBox="0 0 32 32"
 preserveAspectRatio="xMidYMid meet">

<!-- ~17% padding: content area is 22x22 centered in 32x32 -->
<g transform="translate(5, 3.5) scale(0.0031, -0.0031) translate(0, -6430)"
fill="#000000" stroke="none">
<path d="M3370 6309 c-92 -14 -245 -68 -332 -118 -284 -163 -539 -464 -759
-896 -248 -491 -383 -1015 -438 -1715 -28 -348 -24 -691 14 -1105 17 -188 26
-241 106 -605 188 -865 640 -1560 1152 -1771 145 -60 216 -73 392 -73 179 1
252 15 397 78 289 125 564 409 785 811 145 263 254 546 343 889 22 87 54 206
69 265 57 208 107 582 117 871 6 162 6 166 -17 199 -39 56 -72 75 -133 75 -97
1 -143 -53 -152 -180 -28 -426 -74 -723 -164 -1069 -82 -314 -156 -525 -265
-752 -196 -409 -420 -675 -670 -799 -117 -57 -188 -75 -305 -75 -210 0 -386
81 -579 266 -366 353 -635 982 -745 1745 -64 441 -60 1112 9 1607 59 421 180
820 361 1188 203 413 459 704 719 817 248 109 538 56 770 -139 285 -239 591
-802 675 -1240 75 -394 -11 -720 -251 -949 -169 -160 -354 -241 -704 -304
-196 -36 -312 -72 -436 -136 -202 -104 -330 -237 -429 -446 -108 -227 -119
-516 -29 -748 57 -148 178 -301 310 -391 52 -35 74 -44 119 -47 98 -6 180 59
180 144 0 51 -40 109 -113 164 -108 81 -184 192 -222 325 -24 79 -16 262 13
355 45 139 155 275 285 352 94 56 207 92 386 122 84 14 183 33 219 41 169 39
345 113 487 206 111 73 276 242 344 353 123 199 191 456 191 718 -1 509 -344
1265 -747 1649 -158 150 -336 254 -513 299 -99 25 -333 35 -440 19z"/>
<path d="M3749 2547 c-88 -47 -131 -167 -94 -263 81 -211 353 -200 405 17 23
94 -27 207 -109 249 -57 29 -144 27 -202 -3z"/>
<path d="M3765 1716 c-108 -48 -154 -180 -101 -291 76 -160 267 -183 363 -42
74 109 36 269 -77 327 -46 23 -139 26 -185 6z"/>
</g>
</svg>
